<?xml version="1.0" standalone="no"?>
<!DOCTYPE svg PUBLIC "-//W3C//DTD SVG 20010904//EN"
 "http://www.w3.org/TR/2001/REC-SVG-20010904/DTD/svg10.dtd">
<svg version="1.0" xmlns="http://www.w3.org/2000/svg"
 width="400.000000pt" height="400.000000pt" viewBox="0 0 400.000000 400.000000"
 preserveAspectRatio="xMidYMid meet">
<metadata>
Created by potrace 1.14, written by Peter Selinger 2001-2017
</metadata>
<g transform="translate(0.000000,400.000000) scale(0.100000,-0.100000)"
fill="#000000" stroke="none">
<path d="M1845 3433 c-333 -40 -628 -184 -860 -417 -126 -127 -216 -253 -285
-399 -46 -99 -93 -231 -103 -292 -3 -16 -8 -41 -11 -55 -16 -66 -18 -96 -21
-247 -1 -89 1 -184 6 -210 5 -26 14 -70 19 -98 6 -27 12 -59 14 -71 10 -53 69
-211 107 -286 141 -281 395 -528 679 -661 216 -101 386 -136 629 -131 160 3
187 5 248 18 15 4 37 8 48 10 74 15 214 64 295 102 281 133 526 367 664 636
61 120 69 138 103 253 51 170 62 260 58 450 -4 148 -5 166 -25 255 -6 25 -12
54 -14 66 -10 52 -69 211 -107 286 -111 222 -319 453 -516 575 -138 84 -351
170 -483 193 -25 5 -58 11 -75 15 -34 7 -324 14 -370 8z"/>
</g>
</svg>
